<svg width="64" height="64" viewBox="0 0 64 64" fill="none" xmlns="http://www.w3.org/2000/svg">
<path d="M28.85 64.0001C31.6649 64.0001 36.3167 63.9705 41.7602 63.5475C46.3639 63.1897 49.979 59.4471 50.1629 54.8333C50.3837 49.2912 50.4964 43.7497 50.4964 38.7767C50.4964 33.8037 50.3837 28.2622 50.1629 22.7201C49.979 18.1063 46.3639 14.3637 41.7602 14.006C36.3167 13.5828 31.6649 13.5532 28.85 13.5532C26.0351 13.5532 21.3832 13.5828 15.9397 14.006C11.3362 14.3637 7.72099 18.1063 7.53711 22.7201C7.31624 28.2622 7.20361 33.8037 7.20361 38.7767C7.20361 43.7497 7.31624 49.2912 7.53711 54.8333C7.72099 59.4471 11.3361 63.1897 15.9397 63.5475C21.3832 63.9705 26.0351 64.0001 28.85 64.0001Z" fill="#9CA1E4"/>
<path d="M56.4629 17.8397C56.279 13.2259 52.6639 9.48331 48.0602 9.12556C47.9766 9.11906 47.8937 9.11294 47.8105 9.10669C36.6672 10.6881 22.9581 10.4082 20.5461 17.0239C18.1341 23.6397 17.4406 55.2101 41.7885 59.0156C43.6946 58.9494 45.8095 58.8419 48.0602 58.6669C52.6637 58.3092 56.279 54.5666 56.4629 49.9528C56.6837 44.4107 56.7964 38.8692 56.7964 33.8962C56.7964 28.9232 56.6837 23.3818 56.4629 17.8397Z" fill="#EEECFF"/>
<path d="M41.7887 59.0155C21.9552 52.0347 23.1202 31.5117 24.9552 16.684C27.2627 19.8125 30.973 21.8461 35.15 21.8461C42.144 21.8461 47.853 16.1385 47.8105 9.1066C42.4748 8.70185 37.9217 8.67285 35.15 8.67285C32.3352 8.67285 27.6833 8.70248 22.2398 9.1256C17.6363 9.48335 14.021 13.226 13.8372 17.8397C13.6163 23.3819 13.5037 28.9234 13.5037 33.8964C13.5037 38.8694 13.6163 44.4109 13.8372 49.953C14.021 54.5667 17.6362 58.3094 22.2398 58.6671C27.6833 59.0902 32.3352 59.1197 35.15 59.1197C36.8012 59.1196 39.0847 59.1094 41.7887 59.0155Z" fill="#D3D3FF"/>
<path d="M43.7878 12.312C44.1413 11.3358 44.3348 10.2829 44.3348 9.18462C44.3348 4.11212 40.2226 0 35.15 0C33.5236 0 31.9971 0.4245 30.672 1.166C27.4796 6.4825 29.85 18.5421 43.7878 12.312Z" fill="#72D98B"/>
<path d="M43.7877 12.312C31.1228 14.4479 30.205 4.66152 30.6721 1.16602C27.8645 2.73739 25.9653 5.73851 25.9653 9.18464C25.9653 14.2571 30.0775 18.3693 35.15 18.3693C39.1243 18.3693 42.5083 15.8446 43.7877 12.312Z" fill="#00C67F"/>
<path d="M33.988 12.7653C33.7482 12.7653 33.5082 12.6738 33.3252 12.4908L31.0012 10.1668C30.635 9.80056 30.635 9.20706 31.0012 8.84093C31.3673 8.47493 31.9609 8.47493 32.3269 8.84093L33.988 10.5021L37.9732 6.51693C38.3393 6.15093 38.9329 6.15093 39.2989 6.51693C39.665 6.88318 39.665 7.47668 39.2989 7.84281L34.6509 12.4908C34.4679 12.6738 34.2279 12.7653 33.988 12.7653Z" fill="#005DAF"/>
<path d="M27.0322 33.7777H23.4152C22.0566 33.7777 20.9552 32.6763 20.9552 31.3177V27.7007C20.9552 26.3421 22.0566 25.2407 23.4152 25.2407H27.0322C28.3908 25.2407 29.4922 26.3421 29.4922 27.7007V31.3177C29.4923 32.6763 28.3908 33.7777 27.0322 33.7777Z" fill="#4677D4"/>
<path d="M24.1648 33.7777C23.9563 30.9328 23.9836 28.0541 24.1421 25.2407H23.4154C22.0568 25.2407 20.9554 26.3421 20.9554 27.7007V31.3177C20.9554 32.6763 22.0568 33.7777 23.4154 33.7777H24.1648Z" fill="#005DAF"/>
<path d="M49.3447 28.0083H34.7328C34.215 28.0083 33.7953 27.5887 33.7953 27.0708C33.7953 26.5529 34.215 26.1333 34.7328 26.1333H49.3447C49.8624 26.1333 50.2822 26.5529 50.2822 27.0708C50.2822 27.5887 49.8624 28.0083 49.3447 28.0083Z" fill="#9CA1E4"/>
<path d="M41.399 32.8853H34.7328C34.215 32.8853 33.7953 32.4656 33.7953 31.9478C33.7953 31.4299 34.215 31.0103 34.7328 31.0103H41.399C41.9168 31.0103 42.3365 31.4299 42.3365 31.9478C42.3365 32.4656 41.9168 32.8853 41.399 32.8853Z" fill="#9CA1E4"/>
<path d="M27.0322 48.9679H23.4152C22.0566 48.9679 20.9552 47.8665 20.9552 46.5079V42.8909C20.9552 41.5323 22.0566 40.4309 23.4152 40.4309H27.0322C28.3908 40.4309 29.4922 41.5323 29.4922 42.8909V46.5079C29.4923 47.8665 28.3908 48.9679 27.0322 48.9679Z" fill="#4677D4"/>
<path d="M27.0322 48.9679C27.5359 48.9679 28.0041 48.8159 28.3941 48.556C26.8796 46.0503 25.8415 43.3034 25.1581 40.4309H23.4152C22.0566 40.4309 20.9552 41.5323 20.9552 42.8909V46.5079C20.9552 47.8665 22.0566 48.9679 23.4152 48.9679H27.0322Z" fill="#005DAF"/>
<path d="M49.3447 43.1985H34.7328C34.215 43.1985 33.7953 42.7789 33.7953 42.261C33.7953 41.7431 34.215 41.3235 34.7328 41.3235H49.3447C49.8624 41.3235 50.2822 41.7431 50.2822 42.261C50.2822 42.7787 49.8624 43.1985 49.3447 43.1985Z" fill="#9CA1E4"/>
<path d="M41.399 48.0754H34.7328C34.215 48.0754 33.7953 47.6558 33.7953 47.1379C33.7953 46.6201 34.215 46.2004 34.7328 46.2004H41.399C41.9168 46.2004 42.3365 46.6201 42.3365 47.1379C42.3365 47.6557 41.9168 48.0754 41.399 48.0754Z" fill="#9CA1E4"/>
</svg>
