<svg width="64" height="64" viewBox="0 0 64 64" fill="none" xmlns="http://www.w3.org/2000/svg">
<path d="M52.4439 50.3447L51.9429 56.8652C51.6338 60.8912 48.2762 64.0001 44.2388 64.0001H19.7612C15.7237 64.0001 12.3662 60.8912 12.0571 56.8652L11.5677 50.507L30.1467 50.4335L52.4439 50.3447Z" fill="#E0EFFC"/>
<path d="M37.1566 64H19.7612C15.7237 64 12.3662 60.8911 12.0571 56.8651L11.5677 50.5068L30.1467 50.4333C31.6651 54.6718 33.9292 59.2052 37.1566 64Z" fill="#C7E2FB"/>
<path d="M54.9526 17.7356L53.9301 31.0303L32.049 33.3484L27.638 32.8836L10.0699 31.0303L9.04738 17.7356C8.87475 15.4921 10.6494 13.5757 12.8994 13.5757H51.1005C53.3505 13.5757 55.1253 15.4921 54.9526 17.7356Z" fill="#E0EFFC"/>
<path d="M27.6379 32.8836L10.0699 31.0303L9.04738 17.7356C8.87475 15.4921 10.6494 13.5757 12.8994 13.5757H35.2158C33.114 16.1566 28.4661 22.8973 27.6379 32.8836Z" fill="#C7E2FB"/>
<path d="M53.9301 31.0303L52.4439 50.3446L51.0723 51.7163C48.1733 54.614 44.2426 56.2433 40.1446 56.2433H32.6259L16.0599 52.3641L11.5677 32L18.5222 31.0303H53.9301Z" fill="#9BE1EC"/>
<path d="M32.6258 56.2431H23.5926C19.0812 56.2431 14.7951 54.2714 11.8587 50.8456L11.5677 50.5069L10.0698 31.0303H27.8387C26.9218 37.8625 27.7461 46.378 32.6258 56.2431Z" fill="#63D2E2"/>
<path d="M45.5756 31.0303L31.5505 31.9318L27.759 31.6692L18.5223 31.0303L25.316 27.6573L29.9652 22.7506C30.5846 22.4633 31.2737 22.3037 32.0001 22.3037C33.7375 22.3037 35.2158 23.2013 36.0698 24.5163C36.9121 25.8145 38.4653 26.4675 39.9966 26.237C40.2348 26.2008 40.4783 26.1816 40.7268 26.1816C43.4055 26.1815 45.5756 28.3528 45.5756 31.0303Z" fill="#9BE1EC"/>
<path d="M27.7591 31.6691L18.5224 31.0302C18.4581 30.7174 18.4246 30.394 18.4246 30.0605C18.4246 27.383 20.5947 25.2116 23.2734 25.2116C23.6701 25.2116 24.0552 25.2592 24.4234 25.3494C25.8349 25.692 27.3161 25.2309 28.2304 24.1027C28.6953 23.5296 29.2878 23.0634 29.9652 22.7505C28.9774 25.2991 28.1519 28.2859 27.7591 31.6691Z" fill="#63D2E2"/>
<path d="M45.5756 31.0302C45.5756 32.7443 44.6856 34.2525 43.3423 35.114C42.4241 35.7025 41.8188 36.6698 41.6166 37.7425C41.202 39.941 39.2765 41.6964 36.8488 41.6964C35.373 41.6964 34.0516 41.0383 33.163 39.9977C32.3168 39.0099 31.0057 38.5823 29.7152 38.7484C29.5105 38.7742 29.3018 38.7883 29.0906 38.7883C28.5703 38.7883 28.068 38.7058 27.5978 38.5525L27.4626 38.4097L27.2926 38.4419C26.3472 38.0659 25.5501 37.4 25.0078 36.5552C24.4193 35.6394 23.456 35.029 22.387 34.8307C20.4757 34.4739 18.9148 32.9813 18.5221 31.03H45.5756V31.0302Z" fill="#63D2E2"/>
<path d="M27.598 38.5527C26.5201 38.2049 25.6082 37.4902 25.0081 36.5552C24.4196 35.6394 23.4562 35.029 22.3872 34.8307C20.476 34.4739 18.9151 32.9813 18.5223 31.03H27.8388C27.5285 33.3483 27.4177 35.8597 27.598 38.5527Z" fill="#00C9DF"/>
<path d="M46.5455 42.6668C47.6165 42.6668 48.4848 41.7986 48.4848 40.7275C48.4848 39.6564 47.6165 38.7881 46.5455 38.7881C45.4744 38.7881 44.6061 39.6564 44.6061 40.7275C44.6061 41.7986 45.4744 42.6668 46.5455 42.6668Z" fill="#63D2E2"/>
<path d="M17.4545 43.6366C19.0612 43.6366 20.3637 42.3342 20.3637 40.7275C20.3637 39.1208 19.0612 37.8184 17.4545 37.8184C15.8479 37.8184 14.5454 39.1208 14.5454 40.7275C14.5454 42.3342 15.8479 43.6366 17.4545 43.6366Z" fill="#00C9DF"/>
<path d="M37.8182 27.1517C39.4248 27.1517 40.7273 25.8493 40.7273 24.2426C40.7273 22.636 39.4248 21.3335 37.8182 21.3335C36.2115 21.3335 34.9091 22.636 34.9091 24.2426C34.9091 25.8493 36.2115 27.1517 37.8182 27.1517Z" fill="#63D2E2"/>
<path d="M24.2424 21.3336C25.3134 21.3336 26.1817 20.4653 26.1817 19.3942C26.1817 18.3231 25.3134 17.4548 24.2424 17.4548C23.1713 17.4548 22.303 18.3231 22.303 19.3942C22.303 20.4653 23.1713 21.3336 24.2424 21.3336Z" fill="#63D2E2"/>
<path d="M20.3636 9.69711C21.4347 9.69711 22.3029 8.82882 22.3029 7.75773C22.3029 6.68665 21.4347 5.81836 20.3636 5.81836C19.2925 5.81836 18.4242 6.68665 18.4242 7.75773C18.4242 8.82882 19.2925 9.69711 20.3636 9.69711Z" fill="#63D2E2"/>
<path d="M43.6364 8.72714C44.7075 8.72714 45.5758 7.85885 45.5758 6.78776C45.5758 5.71668 44.7075 4.84839 43.6364 4.84839C42.5653 4.84839 41.697 5.71668 41.697 6.78776C41.697 7.85885 42.5653 8.72714 43.6364 8.72714Z" fill="#9BE1EC"/>
<path d="M32 3.87875C33.0711 3.87875 33.9394 3.01046 33.9394 1.93938C33.9394 0.868288 33.0711 0 32 0C30.929 0 30.0607 0.868288 30.0607 1.93938C30.0607 3.01046 30.929 3.87875 32 3.87875Z" fill="#9BE1EC"/>
</svg>
