<svg width="64" height="57" viewBox="0 0 64 57" fill="none" xmlns="http://www.w3.org/2000/svg">
<g clip-path="url(#clip0_35_357)">
<path d="M52.072 46.2173C52.5975 46.2173 53.0235 45.7914 53.0235 45.2659C53.0235 44.7404 52.5975 44.3145 52.072 44.3145C51.5466 44.3145 51.1206 44.7404 51.1206 45.2659C51.1206 45.7914 51.5466 46.2173 52.072 46.2173Z" fill="#D4D4FF"/>
<path d="M51.5 39C51.7761 39 52 38.7761 52 38.5C52 38.2239 51.7761 38 51.5 38C51.2239 38 51 38.2239 51 38.5C51 38.7761 51.2239 39 51.5 39Z" fill="#D4D4FF"/>
<path d="M56.5 47C56.7761 47 57 46.7761 57 46.5C57 46.2239 56.7761 46 56.5 46C56.2239 46 56 46.2239 56 46.5C56 46.7761 56.2239 47 56.5 47Z" fill="#D4D4FF"/>
<path d="M63.5 48C63.7761 48 64 47.7761 64 47.5C64 47.2239 63.7761 47 63.5 47C63.2239 47 63 47.2239 63 47.5C63 47.7761 63.2239 48 63.5 48Z" fill="#D4D4FF"/>
<path d="M63.5 42C63.7761 42 64 41.7761 64 41.5C64 41.2239 63.7761 41 63.5 41C63.2239 41 63 41.2239 63 41.5C63 41.7761 63.2239 42 63.5 42Z" fill="#D4D4FF"/>
<path d="M58.5 38C58.7761 38 59 37.7761 59 37.5C59 37.2239 58.7761 37 58.5 37C58.2239 37 58 37.2239 58 37.5C58 37.7761 58.2239 38 58.5 38Z" fill="#D4D4FF"/>
<path d="M45.5 44C45.7761 44 46 43.7761 46 43.5C46 43.2239 45.7761 43 45.5 43C45.2239 43 45 43.2239 45 43.5C45 43.7761 45.2239 44 45.5 44Z" fill="#D4D4FF"/>
<path d="M53.5 50C53.7761 50 54 49.7761 54 49.5C54 49.2239 53.7761 49 53.5 49C53.2239 49 53 49.2239 53 49.5C53 49.7761 53.2239 50 53.5 50Z" fill="#D4D4FF"/>
<path d="M51.5 56C51.7761 56 52 55.7761 52 55.5C52 55.2239 51.7761 55 51.5 55C51.2239 55 51 55.2239 51 55.5C51 55.7761 51.2239 56 51.5 56Z" fill="#D4D4FF"/>
<path d="M57.7807 33.0108C58.3061 33.0108 58.7321 32.5848 58.7321 32.0593C58.7321 31.5339 58.3061 31.1079 57.7807 31.1079C57.2552 31.1079 56.8292 31.5339 56.8292 32.0593C56.8292 32.5848 57.2552 33.0108 57.7807 33.0108Z" fill="#D4D4FF"/>
<path d="M59.6835 52.5601C60.209 52.5601 60.6349 52.1341 60.6349 51.6087C60.6349 51.0832 60.209 50.6572 59.6835 50.6572C59.158 50.6572 58.7321 51.0832 58.7321 51.6087C58.7321 52.1341 59.158 52.5601 59.6835 52.5601Z" fill="#D4D4FF"/>
<path d="M48.9514 51.9029C49.4769 51.9029 49.9029 51.4769 49.9029 50.9514C49.9029 50.426 49.4769 50 48.9514 50C48.426 50 48 50.426 48 50.9514C48 51.4769 48.426 51.9029 48.9514 51.9029Z" fill="#D4D4FF"/>
<path d="M61.9514 37.9029C62.4769 37.9029 62.9029 37.4769 62.9029 36.9514C62.9029 36.426 62.4769 36 61.9514 36C61.426 36 61 36.426 61 36.9514C61 37.4769 61.426 37.9029 61.9514 37.9029Z" fill="#D4D4FF"/>
<path d="M59.9514 44.9029C60.4769 44.9029 60.9029 44.4769 60.9029 43.9514C60.9029 43.426 60.4769 43 59.9514 43C59.426 43 59 43.426 59 43.9514C59 44.4769 59.426 44.9029 59.9514 44.9029Z" fill="#D4D4FF"/>
<path d="M55.9514 40.9029C56.4769 40.9029 56.9029 40.4769 56.9029 39.9514C56.9029 39.426 56.4769 39 55.9514 39C55.426 39 55 39.426 55 39.9514C55 40.4769 55.426 40.9029 55.9514 40.9029Z" fill="#D4D4FF"/>
<path d="M55.1206 56.375C55.6461 56.375 56.0721 55.9491 56.0721 55.4236C56.0721 54.8981 55.6461 54.4722 55.1206 54.4722C54.5952 54.4722 54.1692 54.8981 54.1692 55.4236C54.1692 55.9491 54.5952 56.375 55.1206 56.375Z" fill="#D4D4FF"/>
<path d="M56.113 20.5618L49.2057 13.6545L44.3396 11.229L13.6747 41.8939L16.0159 46.8443L22.9232 53.7518C24.0379 54.8665 25.4988 55.4238 26.9598 55.4238C28.6233 55.4238 29.8817 54.8665 30.9964 53.7518L56.1131 28.6351C58.3424 26.4057 58.3424 22.7912 56.113 20.5618Z" fill="#EEECFF"/>
<path d="M17.2652 40.7549C17.294 40.7248 17.3221 40.6947 17.3517 40.6651L43.0266 14.9903C44.6974 13.3194 47.1288 12.8753 49.2057 13.6544L37.2756 1.7243C35.0462 -0.505106 31.4317 -0.505106 29.2023 1.7243L4.08563 26.841C1.85622 29.0704 1.85622 32.685 4.08563 34.9142L16.0158 46.8444C15.2504 44.804 15.6665 42.4222 17.2652 40.7549Z" fill="#D3D3FF"/>
<path d="M25.776 19.113L26.9606 17.9338C27.0178 17.8768 27.0875 17.8012 27.1696 17.7072C27.2533 17.6116 27.3238 17.5028 27.3813 17.3809C27.4387 17.259 27.4606 17.1308 27.447 16.9963C27.4349 16.8634 27.3619 16.7296 27.2278 16.5949C27.1738 16.5407 27.1075 16.4911 27.0288 16.4462C26.9501 16.4012 26.859 16.3763 26.7555 16.3714C26.6536 16.365 26.5376 16.391 26.4077 16.4494C26.2794 16.5094 26.137 16.6172 25.9806 16.7729L25.7918 16.2394C25.99 16.0421 26.2158 15.8974 26.4694 15.8053C26.723 15.7132 26.9834 15.6944 27.2505 15.7491C27.5192 15.8053 27.7761 15.9566 28.0212 16.2028C28.217 16.3994 28.3432 16.5928 28.3999 16.783C28.4567 16.9731 28.4679 17.1531 28.4335 17.323C28.4007 17.4944 28.3431 17.6503 28.2609 17.7907C28.1803 17.9296 28.0974 18.0476 28.0122 18.1447C27.927 18.2419 27.8635 18.3113 27.8217 18.3529L26.4142 19.7541L25.776 19.113ZM24.0696 17.3989L26.5781 14.9018L27.1376 15.4638L26.3061 16.2916L26.3847 16.3706L24.7078 18.04L24.0696 17.3989Z" fill="#1E2E4A"/>
<path d="M29.9172 17.5592L30.4747 17.0043L31.1036 17.636L30.5461 18.191L29.9172 17.5592ZM27.0604 20.4032L29.5688 17.906L30.1977 18.5378L27.6893 21.0349L27.0604 20.4032Z" fill="#1E2E4A"/>
<path d="M31.3883 24.7507L32.8702 23.2755C33.0358 23.1106 33.1251 22.9431 33.1378 22.7732C33.1536 22.6033 33.0929 22.4495 32.9558 22.3117C32.8679 22.2234 32.7707 22.1676 32.6641 22.1441C32.5591 22.1192 32.451 22.1251 32.3397 22.162C32.2314 22.1988 32.1293 22.265 32.0333 22.3606L31.9462 21.9201C32.1181 21.749 32.3099 21.6381 32.5217 21.5876C32.735 21.5387 32.9459 21.5461 33.1543 21.6099C33.3658 21.6737 33.5548 21.7893 33.7213 21.9565C34.0065 22.243 34.1363 22.5437 34.1109 22.8589C34.0886 23.174 33.9404 23.4679 33.6663 23.7408L32.0172 25.3824L31.3883 24.7507ZM28.3779 21.7266L30.8863 19.2295L31.4412 19.7869L30.6097 20.6147L30.6883 20.6936L29.0114 22.363L28.3779 21.7266ZM29.8854 23.241L31.3672 21.7658C31.5329 21.6009 31.6221 21.4334 31.6349 21.2635C31.6507 21.0936 31.59 20.9398 31.4528 20.8019C31.3218 20.6703 31.1706 20.6097 30.999 20.6202C30.8306 20.6306 30.6744 20.7075 30.5304 20.8509L30.4526 20.4011C30.6168 20.2377 30.8047 20.1323 31.0165 20.0849C31.2282 20.0375 31.4406 20.0449 31.6537 20.1072C31.8683 20.171 32.0612 20.2889 32.2323 20.4607C32.428 20.6574 32.5465 20.86 32.5878 21.0687C32.6306 21.2789 32.6123 21.4836 32.5331 21.6827C32.4538 21.8818 32.3306 22.0646 32.1634 22.2311L30.5143 23.8727L29.8854 23.241Z" fill="#1E2E4A"/>
<path d="M33.6644 27.1764C33.4085 26.9193 33.2376 26.6377 33.1518 26.3317C33.0691 26.0256 33.069 25.7204 33.1515 25.4163C33.2372 25.1121 33.4054 24.8352 33.6563 24.5855C33.9304 24.3126 34.2228 24.1294 34.5335 24.0359C34.8443 23.9424 35.1502 23.9353 35.4513 24.0148C35.7539 24.0927 36.0285 24.2556 36.2752 24.5033C36.5372 24.7665 36.698 25.0519 36.7576 25.3595C36.8171 25.6671 36.7786 25.9768 36.6419 26.2885C36.5053 26.6003 36.2721 26.8941 35.9424 27.1699L35.3204 26.5451L35.5527 26.3139C35.8082 26.0596 35.9508 25.8359 35.9806 25.6428C36.0135 25.4498 35.9382 25.2611 35.7548 25.0769C35.5405 24.8616 35.3167 24.7684 35.0833 24.7972C34.8531 24.8261 34.6102 24.9677 34.3547 25.222C34.1209 25.4548 33.9898 25.6854 33.9615 25.914C33.9363 26.1426 34.0215 26.3552 34.2173 26.5519C34.3406 26.6758 34.4733 26.7549 34.6154 26.7892C34.7574 26.8235 34.9027 26.813 35.0511 26.7577L35.4989 27.5698C35.1757 27.7035 34.8488 27.7313 34.5184 27.6533C34.1895 27.5769 33.9048 27.4179 33.6644 27.1764ZM33.984 25.2026L34.4531 24.7356L36.1087 26.3986L35.6395 26.8656L33.984 25.2026Z" fill="#1E2E4A"/>
<path d="M36.2928 29.8167C35.9784 29.5008 35.7953 29.1744 35.7435 28.8375C35.6948 28.5006 35.7805 28.181 36.0006 27.8787L36.7409 28.4273C36.6494 28.5707 36.6151 28.7205 36.6379 28.8766C36.6623 29.0343 36.7438 29.1828 36.8826 29.3221C36.9966 29.4367 37.1062 29.5034 37.2112 29.5222C37.3178 29.5394 37.4105 29.5087 37.4895 29.4301C37.539 29.3808 37.5662 29.3291 37.5709 29.275C37.5773 29.2194 37.552 29.1336 37.4951 29.0176C37.4397 28.9031 37.3458 28.7314 37.2135 28.5025C37.0627 28.2457 36.9589 28.0238 36.9021 27.8367C36.8454 27.6496 36.835 27.4843 36.8708 27.3407C36.9082 27.1956 36.9912 27.059 37.1197 26.9311C37.2807 26.7708 37.4609 26.6731 37.6603 26.638C37.8612 26.6014 38.0674 26.6258 38.2789 26.7112C38.4935 26.7967 38.7017 26.9408 38.9036 27.1437C39.0994 27.3403 39.2426 27.5446 39.3333 27.7564C39.424 27.9683 39.4598 28.1762 39.4408 28.3801C39.4233 28.5855 39.3495 28.7746 39.2194 28.9473L38.4605 28.4172C38.5426 28.3139 38.576 28.2004 38.5609 28.0768C38.5457 27.9532 38.4834 27.8271 38.374 27.6986C38.2661 27.5748 38.1574 27.4965 38.0478 27.4639C37.9397 27.4327 37.8493 27.4534 37.7765 27.5258C37.7332 27.569 37.7114 27.6199 37.7113 27.6786C37.7127 27.7389 37.7449 27.8316 37.808 27.9569C37.8726 28.0838 37.9772 28.2694 38.1219 28.5138C38.2619 28.7536 38.3557 28.9639 38.4032 29.1448C38.4538 29.3257 38.4588 29.4887 38.4183 29.6338C38.3794 29.7774 38.2949 29.9139 38.1648 30.0434C37.9078 30.2993 37.6132 30.4075 37.2811 30.3682C36.949 30.3288 36.6196 30.145 36.2928 29.8167Z" fill="#1E2E4A"/>
<path d="M40.8188 28.51L41.3762 27.9551L42.0051 28.5869L41.4477 29.1418L40.8188 28.51ZM37.962 31.354L40.4704 28.8569L41.0993 29.4886L38.5909 31.9858L37.962 31.354Z" fill="#1E2E4A"/>
<path d="M39.3303 32.7285L42.7446 29.3296L43.3735 29.9614L39.9592 33.3603L39.3303 32.7285Z" fill="#1E2E4A"/>
<path d="M14.1042 44.8662C21.0884 37.889 32.4064 37.8946 39.3836 44.8788L39.593 45.0884L30.4843 54.188C28.5307 56.1397 25.3649 56.1381 23.4133 54.1845L14.1042 44.8662Z" fill="#5572AA"/>
<path d="M18.1234 48.9578C23.0074 44.0786 30.922 44.0826 35.8011 48.9666L30.4951 54.2672C28.5415 56.2189 25.3757 56.2173 23.4241 54.2637L18.1234 48.9578Z" fill="#F6CF00"/>
</g>
<defs>
<clipPath id="clip0_35_357">
<rect width="64" height="56.375" fill="white"/>
</clipPath>
</defs>
</svg>
