<svg xmlns="http://www.w3.org/2000/svg" width="41" height="41" viewBox="0 0 41 41" fill="none">
    <g clip-path="url(#icon_04)">
        <path d="M20.5003 0.000976562C9.17833 0.000976562 0 9.1784 0 20.5012C0 31.8222 9.17825 41.0004 20.5003 41.0004C31.8218 41.0004 41 31.8222 41 20.5012C41 9.17832 31.8218 0.000976562 20.5003 0.000976562Z" fill="#FC573B"></path>
        <path d="M20.5002 3.22314C10.9581 3.22314 3.22278 10.9578 3.22278 20.5006C3.22278 30.0419 10.9581 37.7772 20.5002 37.7772C30.0419 37.7772 37.7773 30.0419 37.7773 20.5006C37.7773 10.9578 30.0419 3.22314 20.5002 3.22314Z" fill="white"></path>
        <path d="M7.96673 6C7.26478 6.60724 6.60732 7.2647 6 7.96666L33.0333 35C33.7353 34.3927 34.3928 33.7353 35 33.0333L7.96673 6Z" fill="#FC573B"></path>
    </g>
    <defs>
        <clipPath id="icon_04">
            <rect width="41" height="41" fill="white"></rect>
        </clipPath>
    </defs>
</svg>
