<svg xmlns="http://www.w3.org/2000/svg" width="45" height="36" viewBox="0 0 45 36" fill="none">
    <path d="M23.5489 4.46596H10.4659C10.1132 4.46596 9.82739 4.18014 9.82739 3.82746C9.82739 3.47478 10.1133 3.18896 10.4659 3.18896H23.5489C23.9016 3.18896 24.1875 3.47478 24.1875 3.82746C24.1875 4.18014 23.9017 4.46596 23.5489 4.46596Z"
          fill="#BE63F9"></path>
    <path d="M11.0436 9.14614H4.30933C3.95666 9.14614 3.67084 8.86032 3.67084 8.50764C3.67084 8.15496 3.95674 7.86914 4.30933 7.86914H11.0436C11.3963 7.86914 11.6821 8.15496 11.6821 8.50764C11.6821 8.86032 11.3963 9.14614 11.0436 9.14614Z"
          fill="#BE63F9"></path>
    <path d="M10.8129 13.4972H8.15272C7.80004 13.4972 7.51422 13.2114 7.51422 12.8587C7.51422 12.506 7.80012 12.2202 8.15272 12.2202H10.813C11.1657 12.2202 11.4515 12.506 11.4515 12.8587C11.4515 13.2114 11.1656 13.4972 10.8129 13.4972Z"
          fill="#BE63F9"></path>
    <path d="M8.15266 16.6486H1.6385C1.28582 16.6486 1 16.3628 1 16.0101C1 15.6574 1.2859 15.3716 1.6385 15.3716H8.15258C8.50526 15.3716 8.79108 15.6574 8.79108 16.0101C8.79108 16.3628 8.50526 16.6486 8.15266 16.6486Z"
          fill="#BE63F9"></path>
    <path d="M24.4003 33.2873H10.4659C10.1132 33.2873 9.82739 33.0015 9.82739 32.6487C9.82739 32.296 10.1133 32.0103 10.4659 32.0103H24.4003C24.753 32.0103 25.0388 32.2961 25.0388 32.6487C25.0388 33.0014 24.753 33.2873 24.4003 33.2873Z"
          fill="#BE63F9"></path>
    <path d="M11.0436 28.6072H4.30933C3.95666 28.6072 3.67084 28.3213 3.67084 27.9687C3.67084 27.616 3.95674 27.3301 4.30933 27.3301H11.0436C11.3963 27.3301 11.6821 27.6159 11.6821 27.9687C11.6821 28.3214 11.3963 28.6072 11.0436 28.6072Z"
          fill="#BE63F9"></path>
    <path d="M10.8129 24.2561H8.15272C7.80004 24.2561 7.51422 23.9703 7.51422 23.6175C7.51422 23.2647 7.80012 22.979 8.15272 22.979H10.813C11.1657 22.979 11.4515 23.2648 11.4515 23.6175C11.4515 23.9702 11.1656 24.2561 10.8129 24.2561Z"
          fill="#BE63F9"></path>
    <path d="M8.15266 21.1052H1.6385C1.28582 21.1052 1 20.8194 1 20.4667C1 20.114 1.2859 19.8281 1.6385 19.8281H8.15258C8.50526 19.8281 8.79108 20.1139 8.79108 20.4667C8.79108 20.8195 8.50526 21.1052 8.15266 21.1052Z"
          fill="#BE63F9"></path>
    <path d="M28.204 10.5613C27.8513 10.5613 27.5654 10.2755 27.5654 9.9228V8.94807C27.5654 8.59539 27.8512 8.30957 28.204 8.30957C28.5568 8.30957 28.8425 8.59539 28.8425 8.94807V9.92272C28.8425 10.2754 28.5567 10.5613 28.204 10.5613Z"
          fill="#BE63F9"></path>
    <circle cx="28.7619" cy="18.2381" r="14.2381" stroke="#D9A4FC" stroke-width="4"></circle>
    <circle cx="28.7619" cy="18.2381" r="15.7381" stroke="#BE63F9"></circle>
    <path d="M34.084 12.9965C33.9206 12.9965 33.7571 12.9341 33.6324 12.8095C33.383 12.5601 33.383 12.1558 33.6324 11.9064L34.3215 11.2172C34.5709 10.968 34.9752 10.968 35.2246 11.2172C35.474 11.4666 35.474 11.8709 35.2246 12.1203L34.5355 12.8095C34.4108 12.9341 34.2474 12.9965 34.084 12.9965Z"
          fill="#BE63F9"></path>
    <path d="M37.4942 18.8767H36.5196C36.1669 18.8767 35.881 18.5909 35.881 18.2381C35.881 17.8853 36.1669 17.5996 36.5196 17.5996H37.4942C37.8469 17.5996 38.1328 17.8854 38.1328 18.2381C38.1328 18.5908 37.8469 18.8767 37.4942 18.8767Z"
          fill="#BE63F9"></path>
    <path d="M34.7731 25.4457C34.6098 25.4457 34.4463 25.3833 34.3215 25.2587L33.6324 24.5695C33.383 24.3201 33.383 23.9158 33.6324 23.6664C33.8818 23.4172 34.286 23.4172 34.5355 23.6664L35.2246 24.3556C35.474 24.605 35.474 25.0093 35.2246 25.2587C35.1 25.3833 34.9365 25.4457 34.7731 25.4457Z"
          fill="#BE63F9"></path>
    <path d="M28.204 28.1667C27.8513 28.1667 27.5654 27.8809 27.5654 27.5281V26.5535C27.5654 26.2009 27.8512 25.915 28.204 25.915C28.5568 25.915 28.8425 26.2009 28.8425 26.5535V27.5281C28.8425 27.8809 28.5567 28.1667 28.204 28.1667Z"
          fill="#BE63F9"></path>
    <path d="M21.635 25.4457C21.4716 25.4457 21.3082 25.3833 21.1835 25.2587C20.9341 25.0093 20.9341 24.605 21.1835 24.3556L21.8727 23.6664C22.122 23.4172 22.5264 23.4172 22.7757 23.6664C23.0251 23.9158 23.0251 24.3201 22.7757 24.5695L22.0865 25.2587C21.9619 25.3833 21.7984 25.4457 21.635 25.4457Z"
          fill="#BE63F9"></path>
    <path d="M19.8887 18.8767H18.914C18.5613 18.8767 18.2755 18.5909 18.2755 18.2381C18.2755 17.8853 18.5614 17.5996 18.914 17.5996H19.8887C20.2413 17.5996 20.5272 17.8854 20.5272 18.2381C20.5272 18.5908 20.2413 18.8767 19.8887 18.8767Z"
          fill="#BE63F9"></path>
    <path d="M22.3242 12.9965C22.1608 12.9965 21.9973 12.9341 21.8727 12.8095L21.1835 12.1203C20.9341 11.8709 20.9341 11.4666 21.1835 11.2172C21.4328 10.968 21.8372 10.968 22.0865 11.2172L22.7757 11.9064C23.0251 12.1558 23.0251 12.5601 22.7757 12.8095C22.651 12.9341 22.4876 12.9965 22.3242 12.9965Z"
          fill="#BE63F9"></path>
    <path d="M30.9993 18.8766H28.2043C27.8516 18.8766 27.5657 18.5908 27.5657 18.2381V12.8587C27.5657 12.506 27.8515 12.2202 28.2043 12.2202C28.557 12.2202 28.8428 12.506 28.8428 12.8587V17.5995H30.9993C31.352 17.5995 31.6379 17.8853 31.6379 18.238C31.6379 18.5907 31.352 18.8766 30.9993 18.8766Z"
          fill="#BE63F9"></path>
</svg>
