<svg xmlns="http://www.w3.org/2000/svg" width="41" height="41" viewBox="0 0 41 41" fill="none">
    <g clip-path="url(#icon_01)">
        <path d="M35.4385 1.85098C34.4955 1.85098 33.7302 2.61631 33.7302 3.55931V4.98321C30.0607 1.7835 25.3807 0 20.3932 0C9.14813 0 0 9.18144 0 20.4658C0 21.4088 0.765333 22.1742 1.70833 22.1742C2.65133 22.1742 3.41667 21.4088 3.41667 20.4658C3.41667 11.0649 11.0324 3.41667 20.3932 3.41667C24.4992 3.41667 28.3566 4.87046 31.3975 7.48165H29.8318C28.8888 7.48165 28.1234 8.24698 28.1234 9.18998C28.1234 10.133 28.8888 10.8983 29.8318 10.8983H35.4385C36.3815 10.8983 37.1469 10.133 37.1469 9.18998V3.55931C37.1469 2.61631 36.3815 1.85098 35.4385 1.85098Z"
              fill="#26C6DA"></path>
        <path d="M39.2917 18.8257C38.3487 18.8257 37.5834 19.591 37.5834 20.534C37.5834 29.935 29.9677 37.5832 20.6068 37.5832C16.5487 37.5832 12.7323 36.1653 9.70853 33.6113H11.3494C12.2924 33.6113 13.0577 32.846 13.0577 31.903C13.0577 30.96 12.2924 30.1946 11.3494 30.1946H5.74178C5.72641 30.1946 5.71274 30.1989 5.69822 30.1989C5.6333 30.2006 5.56924 30.2092 5.50432 30.2186C5.45649 30.2254 5.40866 30.2297 5.36168 30.2408C5.3053 30.2536 5.24978 30.2741 5.19426 30.2929C5.14301 30.3108 5.09091 30.3262 5.04136 30.3484C4.99438 30.3697 4.94997 30.3971 4.9047 30.4227C4.85088 30.4535 4.79793 30.4834 4.74753 30.5192C4.73472 30.5286 4.7202 30.5337 4.70738 30.544C4.67834 30.5662 4.65613 30.5935 4.6288 30.6175C4.58353 30.6567 4.53826 30.696 4.49726 30.7405C4.45882 30.7815 4.42551 30.8242 4.3922 30.8677C4.35888 30.9113 4.32643 30.9549 4.29653 31.001C4.26663 31.0488 4.24101 31.0984 4.21624 31.1479C4.19147 31.1966 4.16841 31.2461 4.14876 31.2974C4.12911 31.3503 4.11374 31.4033 4.09922 31.458C4.08555 31.5101 4.07103 31.5622 4.06249 31.616C4.05224 31.6766 4.04797 31.7373 4.0437 31.7988C4.04113 31.8338 4.03345 31.868 4.03345 31.9038V37.5345C4.03345 38.4775 4.79878 39.2428 5.74178 39.2428C6.68478 39.2428 7.45011 38.4775 7.45011 37.5345V36.1764C11.0914 39.2761 15.7014 40.9999 20.6068 40.9999C31.8519 40.9999 41.0001 31.8184 41.0001 20.534C41.0001 19.591 40.2347 18.8257 39.2917 18.8257Z"
              fill="#26C6DA"></path>
    </g>
    <defs>
        <clipPath id="icon_01">
            <rect width="41" height="41" fill="white"></rect>
        </clipPath>
    </defs>
</svg>
